# xmcd
#
# Track frame offsets:
#	150
#	16410
#	31929
#	45216
#	62330
#	80387
#	95692
#	111912
#	130022
#	148354
#	162941
#	177642
#	193518
#	195084
#	197489
#	200094
#	201960
#	204842
#	206597
#	209430
#	211249
#	213015
#	214631
#
# Disc length: 2881 seconds
#
# Revision: 2
# Processed by: cddbd v1.5.2PL0 Copyright (c) Steve Scherf et al.
# Submitted via: audiograbber 1.83.01
#
DISCID=4c0b3f17
DTITLE=Various Artist - CDX Volume 561 (January 7, 2013)
DYEAR=2013
DGENRE=Country
TTITLE0=Leann Rimes - Borrowed
TTITLE1=Charlie Worsham - Could It Be
TTITLE2=Miranda Lambert - Mama's Broken Heart [Radio Edit]
TTITLE3=Kenny Davin Fine - Bird In The Hand 
TTITLE4=Doug Newnum and SOS Renewal - Giving My Best 
TTITLE5=Hannah Bethel - No Where Left To Roam 
TTITLE6=Leah Seawright - Set It On Fire
TTITLE7=Jerry D - Starting Over With You
TTITLE8=Susan Toney - The Trail Of Light And Dark 
TTITLE9=Zach Harmon - Those Stars Still Shine
TTITLE10=Jordan Anderson - Toxic
TTITLE11=Jacob Martin Band - Wraparound Porch
TTITLE12=Chris Young - TJ Martell Foundation Liner
TTITLE13=Easton Corbin - TJ Martell Foundation Liner
TTITLE14=Eli Young Band - TJ Martell Foundation Liner
TTITLE15=Faith Hill - TJ Martell Foundation Liner
TTITLE16=Jana Kramer - TJ Martell Foundation Liner
TTITLE17=Kelly Clarkson - TJ Martell Foundation Liner
TTITLE18=Lady Antebellum - TJ Martell Foundation Liner
TTITLE19=Little Big Town - TJ Martell Foundation Liner
TTITLE20=Sarah Darling - TJ Martell Foundation Liner
TTITLE21=Tim McGraw - TJ Martell Foundation Liner
TTITLE22=Zac Brown - TJ Martell Foundation Liner
EXTD=
EXTT0=
EXTT1=
EXTT2=
EXTT3=
EXTT4=
EXTT5=
EXTT6=
EXTT7=
EXTT8=
EXTT9=
EXTT10=
EXTT11=
EXTT12=
EXTT13=
EXTT14=
EXTT15=
EXTT16=
EXTT17=
EXTT18=
EXTT19=
EXTT20=
EXTT21=
EXTT22=
PLAYORDER=
